<?xml version="1.0" encoding="utf-8"?>
<!-- Generator: Adobe Illustrator 25.0.1, SVG Export Plug-In . SVG Version: 6.00 Build 0)  -->
<svg id="Warstwa_1" style="enable-background:new 0 0 64 64;" version="1.1" viewBox="0 0 64 64" x="0px"
     xml:space="preserve"
     xmlns="http://www.w3.org/2000/svg" xmlns:xlink="http://www.w3.org/1999/xlink" y="0px">
<style type="text/css">
	.st0 {
        fill: #202020;
    }
</style>
    <path class="st0" d="M49.8,54C41,52.2,41,49.8,41,48v-1.2c2.2-2.2,3.7-4.9,4.6-7.9c3.2-0.6,3.9-5.1,3.9-6.2c0-0.1,0-0.2,0-0.4
	c0-1.1,0.1-3.1-1.1-4.3c-0.4-0.4-0.9-0.7-1.5-0.9v-1.7V18c0-0.4,0.7-1.1,1.2-1.7c1.2-1.2,2.8-2.9,2.8-5.3c0-1.9-1-3.8-2.7-4.9
	c-2.1-1.4-5-1.5-7.9-0.4c-1.6-2.5-4.2-4.2-7.3-4.5c-3.9-0.4-7.5,1.4-9.5,4.5c-2.6-1-5.6-0.9-7.7,0.4C14,7.2,13,9,13,11.2
	c0,3.3,1.6,4.5,2.8,5.4c0.9,0.7,1.2,1,1.2,1.8V24v3.1c-2.6,0.6-3.3,3.7-3.3,5.6c0,1.6,1,5.6,4,6.2c0.9,3.3,2.8,6.2,5.3,8.5l0,0.9
	c0,1.6,0.1,3.9-9.6,5.7C1.8,56.2,1,61.6,1,61.9c0,0.3,0.1,0.6,0.2,0.8C1.4,62.9,1.7,63,2,63h60c0.6,0,1-0.4,1-1
	C63,61.5,62.6,56.7,49.8,54z M17,15.1c-1.1-0.8-2-1.5-2-3.9c0-1.9,1-2.9,1.9-3.4c1.6-0.9,3.8-1.1,5.8-0.4C22.3,8.2,22.1,9.1,22,10
	c-0.1,0.5,0.3,1,0.9,1.1c0.5,0.1,1-0.3,1.1-0.9c0.1-1,0.4-2,0.9-2.8c0,0,0,0,0,0c0,0,0,0,0,0c1.5-2.8,4.6-4.5,7.9-4.2
	c3.7,0.4,6.7,3.4,7.1,7.2c0.1,0.5,0.5,0.9,1,0.9c0,0,0.1,0,0.1,0c0.5-0.1,1-0.5,0.9-1.1c-0.1-0.9-0.3-1.8-0.6-2.6
	c2.3-0.8,4.4-0.7,5.9,0.3c1.2,0.8,1.8,2,1.8,3.2c0,1.6-1.1,2.8-2.2,4c-0.9,1-1.8,1.9-1.8,3v5.8c-4.1-1.9-8.5-2.9-13-2.8
	c-4.4-0.1-8.8,0.5-13,1.7v-4.3C19,16.6,17.9,15.7,17,15.1z M25.1,49.1c0.2,0.1,0.4,0.2,0.6,0.2c0.3,0,0.6-0.2,0.8-0.4
	c0.3-0.5,0.2-1.1-0.3-1.4c-3.4-2.3-5.8-5.7-6.8-9.7c-0.1-0.4-0.5-0.8-1-0.8c-2.2,0-2.8-3.8-2.8-4.3c0-0.2,0-3.7,2.3-3.7
	c0.6,0,1-0.4,1-1v-3.2c4.2-1.2,8.6-1.8,13-1.8c4.5-0.1,9,1,13,3v2c0,0.5,0.4,1,1,1c0.5,0,0.8,0.1,1,0.4c0.6,0.7,0.6,2.1,0.5,2.9
	c0,0.2,0,0.3,0,0.4c0,0.6-0.5,4.3-2.7,4.3c-0.5,0-0.9,0.3-1,0.8c-1,4-3.4,7.4-6.8,9.7c-0.5,0.3-0.6,0.9-0.3,1.4
	c0.2,0.3,0.5,0.4,0.8,0.4c0.2,0,0.4-0.1,0.6-0.2c0.3-0.2,0.6-0.4,0.9-0.6c0,0.4,0.1,0.7,0.1,1.1L32,52.9L24.8,50
	c0.1-0.3,0.1-0.7,0.1-1C25,49.1,25.1,49.1,25.1,49.1z M13.8,56c6.1-1.2,8.9-2.6,10.2-4.2l7,2.9V61H3.5C4.5,59.6,7.1,57.3,13.8,56z
	 M33,61v-6.4l6.9-3.2c1.2,1.7,3.7,3.3,9.5,4.5c7.5,1.6,10.2,3.8,11.1,5H33z"/>
</svg>
